<mxfile host="Electron" modified="2024-02-24T01:18:02.480Z" agent="Mozilla/5.0 (Macintosh; Intel Mac OS X 10_15_7) AppleWebKit/537.36 (KHTML, like Gecko) draw.io/23.1.5 Chrome/120.0.6099.109 Electron/28.1.0 Safari/537.36" etag="PTZM-YAVmNk92rmm1Rul" version="23.1.5" type="device">
  <diagram name="페이지-1" id="3jq4Jt0UHCENOk11asI4">
    <mxGraphModel dx="1114" dy="894" grid="1" gridSize="10" guides="1" tooltips="1" connect="1" arrows="1" fold="1" page="1" pageScale="1" pageWidth="827" pageHeight="1169" math="0" shadow="0">
      <root>
        <mxCell id="0" />
        <mxCell id="1" parent="0" />
        <mxCell id="Aay0tJa5pNS5YJTUcAe--1" value="UserRepository" style="rounded=0;whiteSpace=wrap;html=1;" vertex="1" parent="1">
          <mxGeometry x="400" y="80" width="120" height="40" as="geometry" />
        </mxCell>
        <mxCell id="Aay0tJa5pNS5YJTUcAe--6" style="edgeStyle=orthogonalEdgeStyle;rounded=0;orthogonalLoop=1;jettySize=auto;html=1;entryX=0;entryY=0.5;entryDx=0;entryDy=0;endArrow=block;endFill=1;" edge="1" parent="1" source="Aay0tJa5pNS5YJTUcAe--2" target="Aay0tJa5pNS5YJTUcAe--3">
          <mxGeometry relative="1" as="geometry" />
        </mxCell>
        <mxCell id="Aay0tJa5pNS5YJTUcAe--2" value="AuthController" style="rounded=0;whiteSpace=wrap;html=1;" vertex="1" parent="1">
          <mxGeometry x="80" y="120" width="120" height="40" as="geometry" />
        </mxCell>
        <mxCell id="Aay0tJa5pNS5YJTUcAe--7" style="edgeStyle=orthogonalEdgeStyle;rounded=0;orthogonalLoop=1;jettySize=auto;html=1;entryX=0;entryY=0.5;entryDx=0;entryDy=0;endArrow=block;endFill=1;" edge="1" parent="1" source="Aay0tJa5pNS5YJTUcAe--3" target="Aay0tJa5pNS5YJTUcAe--1">
          <mxGeometry relative="1" as="geometry" />
        </mxCell>
        <mxCell id="Aay0tJa5pNS5YJTUcAe--8" style="edgeStyle=orthogonalEdgeStyle;rounded=0;orthogonalLoop=1;jettySize=auto;html=1;entryX=0;entryY=0.5;entryDx=0;entryDy=0;endArrow=block;endFill=1;" edge="1" parent="1" source="Aay0tJa5pNS5YJTUcAe--3" target="Aay0tJa5pNS5YJTUcAe--4">
          <mxGeometry relative="1" as="geometry" />
        </mxCell>
        <mxCell id="Aay0tJa5pNS5YJTUcAe--9" style="edgeStyle=orthogonalEdgeStyle;rounded=0;orthogonalLoop=1;jettySize=auto;html=1;entryX=0.5;entryY=0;entryDx=0;entryDy=0;endArrow=block;endFill=1;" edge="1" parent="1" source="Aay0tJa5pNS5YJTUcAe--3" target="Aay0tJa5pNS5YJTUcAe--5">
          <mxGeometry relative="1" as="geometry" />
        </mxCell>
        <mxCell id="Aay0tJa5pNS5YJTUcAe--3" value="UserService" style="rounded=0;whiteSpace=wrap;html=1;" vertex="1" parent="1">
          <mxGeometry x="240" y="120" width="120" height="40" as="geometry" />
        </mxCell>
        <mxCell id="Aay0tJa5pNS5YJTUcAe--4" value="OtpRepository" style="rounded=0;whiteSpace=wrap;html=1;" vertex="1" parent="1">
          <mxGeometry x="400" y="160" width="120" height="40" as="geometry" />
        </mxCell>
        <mxCell id="Aay0tJa5pNS5YJTUcAe--5" value="GenerateCodeUtil" style="rounded=0;whiteSpace=wrap;html=1;" vertex="1" parent="1">
          <mxGeometry x="240" y="230" width="120" height="40" as="geometry" />
        </mxCell>
        <mxCell id="Aay0tJa5pNS5YJTUcAe--10" value="OTP 로 이용될 코드 생성 유틸리티" style="text;html=1;align=center;verticalAlign=middle;whiteSpace=wrap;rounded=0;fillColor=#d5e8d4;strokeColor=#82b366;sketch=1;curveFitting=1;jiggle=2;" vertex="1" parent="1">
          <mxGeometry x="250" y="280" width="190" height="20" as="geometry" />
        </mxCell>
      </root>
    </mxGraphModel>
  </diagram>
</mxfile>
